<mxfile host="app.diagrams.net" agent="Mozilla/5.0 (Windows NT 10.0; Win64; x64) AppleWebKit/537.36 (KHTML, like Gecko) Chrome/129.0.0.0 Safari/537.36 Edg/129.0.0.0" version="24.7.17">
  <diagram name="Страница — 1" id="EhCeW__Tys0sM3b0dTbJ">
    <mxGraphModel dx="1325" dy="1895" grid="1" gridSize="10" guides="1" tooltips="1" connect="1" arrows="1" fold="1" page="1" pageScale="1" pageWidth="827" pageHeight="1169" math="0" shadow="0">
      <root>
        <mxCell id="0" />
        <mxCell id="1" parent="0" />
        <mxCell id="4zpAsei9gnZwp4Bq4ot2-1" value="Прибор 1" style="rounded=0;whiteSpace=wrap;html=1;" vertex="1" parent="1">
          <mxGeometry x="354" y="120" width="120" height="60" as="geometry" />
        </mxCell>
        <mxCell id="4zpAsei9gnZwp4Bq4ot2-2" style="edgeStyle=orthogonalEdgeStyle;rounded=0;orthogonalLoop=1;jettySize=auto;html=1;exitX=1;exitY=0.5;exitDx=0;exitDy=0;" edge="1" parent="1" source="4zpAsei9gnZwp4Bq4ot2-3">
          <mxGeometry relative="1" as="geometry">
            <mxPoint x="640" y="280" as="targetPoint" />
          </mxGeometry>
        </mxCell>
        <mxCell id="4zpAsei9gnZwp4Bq4ot2-3" value="Прибор 2" style="rounded=0;whiteSpace=wrap;html=1;" vertex="1" parent="1">
          <mxGeometry x="354" y="250" width="120" height="60" as="geometry" />
        </mxCell>
        <mxCell id="4zpAsei9gnZwp4Bq4ot2-4" value="Прибор 3" style="rounded=0;whiteSpace=wrap;html=1;" vertex="1" parent="1">
          <mxGeometry x="354" y="380" width="120" height="60" as="geometry" />
        </mxCell>
        <mxCell id="4zpAsei9gnZwp4Bq4ot2-5" value="" style="endArrow=classic;html=1;rounded=0;entryX=0;entryY=0.5;entryDx=0;entryDy=0;endFill=1;" edge="1" parent="1" target="4zpAsei9gnZwp4Bq4ot2-3">
          <mxGeometry width="50" height="50" relative="1" as="geometry">
            <mxPoint x="40" y="280" as="sourcePoint" />
            <mxPoint x="220" y="280" as="targetPoint" />
          </mxGeometry>
        </mxCell>
        <mxCell id="4zpAsei9gnZwp4Bq4ot2-6" value="" style="endArrow=classic;html=1;rounded=0;entryX=0;entryY=0.5;entryDx=0;entryDy=0;startArrow=none;startFill=0;endFill=1;" edge="1" parent="1" target="4zpAsei9gnZwp4Bq4ot2-23">
          <mxGeometry width="50" height="50" relative="1" as="geometry">
            <mxPoint x="120" y="280" as="sourcePoint" />
            <mxPoint x="120" y="140" as="targetPoint" />
            <Array as="points">
              <mxPoint x="120" y="150" />
            </Array>
          </mxGeometry>
        </mxCell>
        <mxCell id="4zpAsei9gnZwp4Bq4ot2-7" value="" style="endArrow=classic;html=1;rounded=0;entryX=0;entryY=0.5;entryDx=0;entryDy=0;endFill=1;" edge="1" parent="1" target="4zpAsei9gnZwp4Bq4ot2-4">
          <mxGeometry width="50" height="50" relative="1" as="geometry">
            <mxPoint x="120" y="280" as="sourcePoint" />
            <mxPoint x="225" y="410" as="targetPoint" />
            <Array as="points">
              <mxPoint x="120" y="410" />
            </Array>
          </mxGeometry>
        </mxCell>
        <mxCell id="4zpAsei9gnZwp4Bq4ot2-14" value="" style="endArrow=none;html=1;rounded=0;entryX=1;entryY=0.5;entryDx=0;entryDy=0;" edge="1" parent="1" target="4zpAsei9gnZwp4Bq4ot2-1">
          <mxGeometry width="50" height="50" relative="1" as="geometry">
            <mxPoint x="560" y="280" as="sourcePoint" />
            <mxPoint x="440" y="290" as="targetPoint" />
            <Array as="points">
              <mxPoint x="560" y="150" />
            </Array>
          </mxGeometry>
        </mxCell>
        <mxCell id="4zpAsei9gnZwp4Bq4ot2-15" value="" style="endArrow=none;html=1;rounded=0;entryX=1;entryY=0.5;entryDx=0;entryDy=0;" edge="1" parent="1" target="4zpAsei9gnZwp4Bq4ot2-4">
          <mxGeometry width="50" height="50" relative="1" as="geometry">
            <mxPoint x="560" y="280" as="sourcePoint" />
            <mxPoint x="484" y="160" as="targetPoint" />
            <Array as="points">
              <mxPoint x="560" y="410" />
            </Array>
          </mxGeometry>
        </mxCell>
        <mxCell id="4zpAsei9gnZwp4Bq4ot2-16" value="&lt;span style=&quot;font-size: 12pt; line-height: 107%; font-family: &amp;quot;Cambria Math&amp;quot;, serif;&quot; lang=&quot;EN-US&quot;&gt;λ = 0,4&lt;/span&gt;" style="text;html=1;align=center;verticalAlign=middle;resizable=0;points=[];autosize=1;strokeColor=none;fillColor=none;" vertex="1" parent="1">
          <mxGeometry x="40" y="250" width="70" height="30" as="geometry" />
        </mxCell>
        <mxCell id="4zpAsei9gnZwp4Bq4ot2-17" value="&lt;font style=&quot;font-size: 14px;&quot;&gt;&lt;span style=&quot;line-height: 107%; font-family: &amp;quot;Cambria Math&amp;quot;, serif;&quot; lang=&quot;EN-US&quot;&gt;λ1 = 0.6 *&amp;nbsp;&lt;/span&gt;&lt;span style=&quot;font-family: &amp;quot;Cambria Math&amp;quot;, serif;&quot;&gt;λ&lt;/span&gt;&lt;/font&gt;" style="text;html=1;align=center;verticalAlign=middle;resizable=0;points=[];autosize=1;strokeColor=none;fillColor=none;" vertex="1" parent="1">
          <mxGeometry x="125" y="118" width="90" height="30" as="geometry" />
        </mxCell>
        <mxCell id="4zpAsei9gnZwp4Bq4ot2-18" value="&lt;font style=&quot;font-size: 14px;&quot;&gt;&lt;span style=&quot;line-height: 107%; font-family: &amp;quot;Cambria Math&amp;quot;, serif;&quot; lang=&quot;EN-US&quot;&gt;λ2 = 0.25 *&amp;nbsp;&lt;/span&gt;&lt;span style=&quot;font-family: &amp;quot;Cambria Math&amp;quot;, serif;&quot;&gt;λ&lt;/span&gt;&lt;/font&gt;" style="text;html=1;align=center;verticalAlign=middle;resizable=0;points=[];autosize=1;strokeColor=none;fillColor=none;" vertex="1" parent="1">
          <mxGeometry x="120" y="250" width="100" height="30" as="geometry" />
        </mxCell>
        <mxCell id="4zpAsei9gnZwp4Bq4ot2-19" value="&lt;font style=&quot;font-size: 14px;&quot;&gt;&lt;span style=&quot;line-height: 107%; font-family: &amp;quot;Cambria Math&amp;quot;, serif;&quot; lang=&quot;EN-US&quot;&gt;λ3 = 0.15 *&amp;nbsp;&lt;/span&gt;&lt;span style=&quot;font-family: &amp;quot;Cambria Math&amp;quot;, serif;&quot;&gt;λ&lt;/span&gt;&lt;/font&gt;" style="text;html=1;align=center;verticalAlign=middle;resizable=0;points=[];autosize=1;strokeColor=none;fillColor=none;" vertex="1" parent="1">
          <mxGeometry x="120" y="380" width="100" height="30" as="geometry" />
        </mxCell>
        <mxCell id="4zpAsei9gnZwp4Bq4ot2-20" value="&lt;span style=&quot;font-size: 12pt; line-height: 107%; font-family: &amp;quot;Cambria Math&amp;quot;, serif;&quot; lang=&quot;EN-US&quot;&gt;𝜇&lt;/span&gt;" style="text;html=1;align=center;verticalAlign=middle;resizable=0;points=[];autosize=1;strokeColor=none;fillColor=none;" vertex="1" parent="1">
          <mxGeometry x="500" y="120" width="30" height="30" as="geometry" />
        </mxCell>
        <mxCell id="4zpAsei9gnZwp4Bq4ot2-21" value="&lt;span style=&quot;font-size: 12pt; line-height: 107%; font-family: &amp;quot;Cambria Math&amp;quot;, serif;&quot; lang=&quot;EN-US&quot;&gt;𝜇&lt;/span&gt;" style="text;html=1;align=center;verticalAlign=middle;resizable=0;points=[];autosize=1;strokeColor=none;fillColor=none;" vertex="1" parent="1">
          <mxGeometry x="500" y="250" width="30" height="30" as="geometry" />
        </mxCell>
        <mxCell id="4zpAsei9gnZwp4Bq4ot2-22" value="&lt;span style=&quot;font-size: 12pt; line-height: 107%; font-family: &amp;quot;Cambria Math&amp;quot;, serif;&quot; lang=&quot;EN-US&quot;&gt;𝜇&lt;/span&gt;" style="text;html=1;align=center;verticalAlign=middle;resizable=0;points=[];autosize=1;strokeColor=none;fillColor=none;" vertex="1" parent="1">
          <mxGeometry x="500" y="380" width="30" height="30" as="geometry" />
        </mxCell>
        <mxCell id="4zpAsei9gnZwp4Bq4ot2-25" style="edgeStyle=orthogonalEdgeStyle;rounded=0;orthogonalLoop=1;jettySize=auto;html=1;entryX=0;entryY=0.5;entryDx=0;entryDy=0;" edge="1" parent="1" source="4zpAsei9gnZwp4Bq4ot2-23" target="4zpAsei9gnZwp4Bq4ot2-1">
          <mxGeometry relative="1" as="geometry" />
        </mxCell>
        <mxCell id="4zpAsei9gnZwp4Bq4ot2-23" value="" style="whiteSpace=wrap;html=1;aspect=fixed;" vertex="1" parent="1">
          <mxGeometry x="220" y="135" width="30" height="30" as="geometry" />
        </mxCell>
        <mxCell id="4zpAsei9gnZwp4Bq4ot2-27" value="r=1" style="text;html=1;align=center;verticalAlign=middle;resizable=0;points=[];autosize=1;strokeColor=none;fillColor=none;" vertex="1" parent="1">
          <mxGeometry x="220" y="105" width="40" height="30" as="geometry" />
        </mxCell>
        <mxCell id="4zpAsei9gnZwp4Bq4ot2-28" value="" style="shape=callout;whiteSpace=wrap;html=1;perimeter=calloutPerimeter;" vertex="1" parent="1">
          <mxGeometry x="370" y="-40" width="180" height="158" as="geometry" />
        </mxCell>
        <mxCell id="4zpAsei9gnZwp4Bq4ot2-29" value="Ф1&lt;div&gt;b&#39;&lt;/div&gt;" style="ellipse;whiteSpace=wrap;html=1;aspect=fixed;" vertex="1" parent="1">
          <mxGeometry x="440" y="-30" width="40" height="40" as="geometry" />
        </mxCell>
        <mxCell id="4zpAsei9gnZwp4Bq4ot2-30" value="Ф2&lt;div&gt;b&#39;&#39;&lt;/div&gt;" style="ellipse;whiteSpace=wrap;html=1;aspect=fixed;" vertex="1" parent="1">
          <mxGeometry x="440" y="30" width="40" height="40" as="geometry" />
        </mxCell>
        <mxCell id="4zpAsei9gnZwp4Bq4ot2-31" value="" style="endArrow=classic;html=1;rounded=0;exitX=0;exitY=0;exitDx=0;exitDy=64;exitPerimeter=0;entryX=0;entryY=0.5;entryDx=0;entryDy=0;endFill=1;" edge="1" parent="1" source="4zpAsei9gnZwp4Bq4ot2-28" target="4zpAsei9gnZwp4Bq4ot2-29">
          <mxGeometry width="50" height="50" relative="1" as="geometry">
            <mxPoint x="390" y="20" as="sourcePoint" />
            <mxPoint x="440" y="-30" as="targetPoint" />
            <Array as="points">
              <mxPoint x="410" y="24" />
            </Array>
          </mxGeometry>
        </mxCell>
        <mxCell id="4zpAsei9gnZwp4Bq4ot2-36" value="q" style="edgeLabel;html=1;align=center;verticalAlign=middle;resizable=0;points=[];" vertex="1" connectable="0" parent="4zpAsei9gnZwp4Bq4ot2-31">
          <mxGeometry x="0.4647" relative="1" as="geometry">
            <mxPoint x="-5" y="-7" as="offset" />
          </mxGeometry>
        </mxCell>
        <mxCell id="4zpAsei9gnZwp4Bq4ot2-32" value="" style="endArrow=classic;html=1;rounded=0;entryX=0;entryY=0.5;entryDx=0;entryDy=0;" edge="1" parent="1" target="4zpAsei9gnZwp4Bq4ot2-30">
          <mxGeometry width="50" height="50" relative="1" as="geometry">
            <mxPoint x="410" y="24" as="sourcePoint" />
            <mxPoint x="440" y="-30" as="targetPoint" />
          </mxGeometry>
        </mxCell>
        <mxCell id="4zpAsei9gnZwp4Bq4ot2-37" value="1-q" style="edgeLabel;html=1;align=center;verticalAlign=middle;resizable=0;points=[];" vertex="1" connectable="0" parent="4zpAsei9gnZwp4Bq4ot2-32">
          <mxGeometry x="-0.3312" y="-1" relative="1" as="geometry">
            <mxPoint x="-7" y="7" as="offset" />
          </mxGeometry>
        </mxCell>
        <mxCell id="4zpAsei9gnZwp4Bq4ot2-33" value="" style="endArrow=classic;html=1;rounded=0;exitX=1;exitY=0.5;exitDx=0;exitDy=0;entryX=0;entryY=0;entryDx=180;entryDy=64.00000000000001;entryPerimeter=0;" edge="1" parent="1" source="4zpAsei9gnZwp4Bq4ot2-29" target="4zpAsei9gnZwp4Bq4ot2-28">
          <mxGeometry width="50" height="50" relative="1" as="geometry">
            <mxPoint x="440" y="70" as="sourcePoint" />
            <mxPoint x="490" y="20" as="targetPoint" />
            <Array as="points">
              <mxPoint x="505" y="23" />
            </Array>
          </mxGeometry>
        </mxCell>
        <mxCell id="4zpAsei9gnZwp4Bq4ot2-35" value="" style="endArrow=none;html=1;rounded=0;exitX=1;exitY=0.5;exitDx=0;exitDy=0;endFill=0;" edge="1" parent="1" source="4zpAsei9gnZwp4Bq4ot2-30">
          <mxGeometry width="50" height="50" relative="1" as="geometry">
            <mxPoint x="440" y="70" as="sourcePoint" />
            <mxPoint x="505" y="23" as="targetPoint" />
          </mxGeometry>
        </mxCell>
      </root>
    </mxGraphModel>
  </diagram>
</mxfile>
